<?xml version="1.0" standalone="no"?>
<!DOCTYPE svg PUBLIC "-//W3C//DTD SVG 20010904//EN"
 "http://www.w3.org/TR/2001/REC-SVG-20010904/DTD/svg10.dtd">
<svg version="1.0" xmlns="http://www.w3.org/2000/svg"
 width="2768.000000pt" height="2768.000000pt" viewBox="0 0 2768.000000 2768.000000"
 preserveAspectRatio="xMidYMid meet">
<metadata>
Created by potrace 1.11, written by Peter Selinger 2001-2013
</metadata>
<g transform="translate(0.000000,2768.000000) scale(0.100000,-0.100000)"
fill="#000000" stroke="none">
<path d="M2890 20648 c0 -4500 4 -7084 10 -7193 98 -1692 667 -3557 1596
-5230 674 -1215 1482 -2281 2539 -3354 1998 -2026 3991 -3575 5670 -4406 529
-262 1056 -464 1180 -452 67 7 299 83 520 172 1244 498 2816 1545 4405 2934
724 633 1601 1474 2169 2081 1736 1855 2941 4027 3496 6302 176 723 284 1461
303 2074 4 126 6 3349 4 7162 l-2 6932 -10945 0 -10945 0 0 -7022z m3190 -708
c0 -819 3 -1490 8 -1489 4 0 243 231 532 514 l525 514 525 1 c447 0 522 -2
510 -14 -8 -7 -307 -287 -665 -621 -357 -334 -650 -612 -650 -616 0 -5 315
-358 700 -785 385 -426 706 -784 714 -795 13 -19 6 -19 -520 -19 l-534 1 -505
579 c-278 319 -515 592 -527 607 l-22 27 -45 -38 -46 -37 0 -570 0 -569 -400
0 -400 0 0 2400 0 2400 400 0 400 0 0 -1490z m9150 -910 l0 -2400 -400 0 -400
0 0 183 -1 182 -27 -35 c-15 -19 -56 -66 -92 -103 -194 -205 -421 -303 -720
-314 -758 -28 -1364 497 -1475 1277 -19 134 -19 346 0 478 72 504 345 912 751
1119 194 99 359 141 589 150 245 9 407 -21 590 -112 132 -66 233 -147 318
-255 l62 -79 3 1155 2 1154 400 0 400 0 0 -2400z m6910 555 l0 -1435 258 -2
257 -3 3 -342 2 -343 -260 0 -260 0 0 -415 0 -415 -400 0 -400 0 0 415 0 415
-1075 0 -1075 0 0 189 0 189 1006 1468 c554 808 1044 1524 1091 1592 l84 122
384 0 385 0 0 -1435z m-11902 -26 c722 -78 1241 -542 1368 -1224 28 -150 26
-452 -4 -592 -113 -524 -455 -920 -947 -1098 -319 -116 -744 -138 -1105 -59
-598 132 -1023 559 -1152 1157 -30 140 -32 442 -4 592 126 674 644 1143 1351
1223 114 13 379 14 493 1z m7432 -13 c285 -52 511 -161 690 -333 290 -277 427
-622 447 -1130 l6 -163 -1068 0 -1068 0 7 -72 c33 -348 206 -571 505 -650 98
-25 285 -28 383 -5 188 46 344 151 444 302 29 44 41 54 58 50 11 -3 176 -30
365 -60 189 -30 345 -56 347 -58 2 -2 -14 -41 -37 -88 -162 -337 -438 -587
-779 -707 -205 -71 -393 -97 -655 -89 -428 13 -741 136 -1025 403 -311 294
-453 675 -437 1172 13 411 146 750 399 1017 219 232 498 372 837 420 126 18
463 13 581 -9z m-8330 -5116 c0 -819 3 -1490 8 -1489 4 0 243 231 532 514
l525 514 525 1 c447 0 522 -2 510 -14 -8 -7 -307 -287 -665 -621 -357 -334
-650 -612 -650 -616 0 -5 315 -358 700 -785 385 -426 706 -784 714 -795 13
-19 6 -19 -520 -19 l-534 1 -505 579 c-278 319 -515 592 -527 607 l-22 27 -45
-38 -46 -37 0 -570 0 -569 -400 0 -400 0 0 2400 0 2400 400 0 400 0 0 -1490z
m7120 -910 l0 -2400 -400 0 -400 0 0 183 -1 182 -27 -35 c-15 -19 -56 -66 -92
-103 -194 -205 -421 -303 -720 -314 -758 -28 -1364 497 -1475 1277 -19 134
-19 346 0 478 72 504 345 912 751 1119 194 99 359 141 589 150 245 9 407 -21
590 -112 132 -66 233 -147 318 -255 l62 -79 3 1155 2 1154 400 0 400 0 0
-2400z m-3971 2097 c122 -51 226 -155 272 -275 33 -85 38 -220 11 -309 -106
-346 -530 -457 -793 -206 -199 190 -197 502 6 691 106 99 199 133 345 128 74
-2 109 -9 159 -29z m6111 -1590 c123 -29 268 -83 360 -134 83 -46 200 -126
200 -136 0 -5 -84 -108 -187 -229 -104 -122 -191 -226 -195 -231 -3 -6 -25 5
-50 25 -183 149 -448 200 -608 118 -137 -71 -161 -247 -46 -348 56 -49 113
-74 339 -146 375 -121 544 -205 683 -341 69 -68 89 -96 127 -175 58 -122 77
-198 84 -337 14 -273 -73 -509 -259 -709 -172 -183 -403 -299 -679 -340 -147
-21 -408 -15 -551 15 -281 58 -513 180 -725 385 -29 28 -53 54 -53 59 0 4 93
116 207 247 l207 239 61 -57 c207 -199 432 -289 649 -262 154 19 268 102 302
218 30 103 4 201 -73 273 -58 55 -92 71 -308 149 -359 131 -512 216 -652 364
-136 144 -201 297 -210 497 -17 363 184 684 505 808 71 27 228 65 312 75 19 2
130 3 245 1 182 -3 224 -6 315 -28z m-5890 -1482 l0 -1425 -400 0 -400 0 0
1425 0 1425 400 0 400 0 0 -1425z"/>
<path d="M13595 18850 c-258 -41 -463 -189 -575 -415 -64 -128 -83 -216 -83
-380 0 -111 5 -156 21 -217 43 -158 142 -317 256 -409 214 -173 513 -223 776
-130 254 90 440 308 495 580 24 117 17 327 -15 426 -48 151 -138 288 -250 381
-67 55 -212 127 -302 149 -83 20 -243 27 -323 15z"/>
<path d="M20778 18983 c-304 -449 -554 -821 -556 -825 -2 -4 249 -8 557 -8
l561 0 0 825 c0 454 -2 825 -4 825 -2 0 -253 -368 -558 -817z"/>
<path d="M9875 18850 c-313 -50 -562 -275 -647 -586 -33 -122 -30 -318 6 -439
68 -225 208 -391 411 -490 128 -62 205 -79 355 -79 150 0 227 17 355 79 203
99 343 265 411 490 36 121 39 317 6 439 -44 161 -139 312 -259 411 -79 65
-218 136 -315 160 -83 20 -243 27 -323 15z"/>
<path d="M17204 18980 c-185 -48 -346 -176 -429 -340 -24 -47 -65 -172 -65
-196 0 -12 104 -14 670 -14 l670 0 -6 28 c-31 142 -88 248 -188 347 -133 133
-291 196 -488 194 -57 0 -121 -7 -164 -19z"/>
<path d="M14825 13340 c-258 -41 -463 -189 -575 -415 -64 -128 -83 -216 -83
-380 0 -111 5 -156 21 -217 43 -158 142 -317 256 -409 214 -173 513 -223 776
-130 254 90 440 308 495 580 24 117 17 327 -15 426 -48 151 -138 288 -250 381
-67 55 -212 127 -302 149 -83 20 -243 27 -323 15z"/>
</g>
</svg>
